<svg width="709" height="106" viewBox="0 0 709 106" fill="none" xmlns="http://www.w3.org/2000/svg">
<path d="M44.904 14.912L16.872 100.928V100.8C16.36 102.08 15.6347 103.147 14.696 104C13.8427 104.768 12.776 105.152 11.496 105.152C10.8133 105.152 10.1307 105.067 9.448 104.896C8.85067 104.811 8.21067 104.683 7.528 104.512H7.656C2.792 102.976 1 100.245 2.28 96.32L31.464 7.616C31.8907 6.25066 32.616 5.09866 33.64 4.16C34.7493 3.22133 36.0293 2.66666 37.48 2.49599C38.9307 2.23999 40.3387 2.06933 41.704 1.98399C43.0693 1.81333 44.136 1.728 44.904 1.728C45.672 1.728 46.7387 1.81333 48.104 1.98399C49.4693 2.06933 50.8773 2.19733 52.328 2.368C53.5227 2.53866 54.6747 3.17866 55.784 4.28799C56.9787 5.39733 57.8747 6.50666 58.472 7.616C63.2507 22.2933 68.072 37.0987 72.936 52.032C77.8853 66.88 82.7493 81.6427 87.528 96.32C88.7227 100.245 86.9307 102.976 82.152 104.512C81.4693 104.683 80.8293 104.811 80.232 104.896C79.72 105.067 79.1227 105.152 78.44 105.152C77.2453 105.152 76.136 104.768 75.112 104C74.1733 103.147 73.4907 102.08 73.064 100.8V100.928L44.904 14.912ZM54.504 73.28C54.504 76.0107 53.5227 78.3573 51.56 80.32C49.6827 82.1973 47.3787 83.136 44.648 83.136C41.9173 83.136 39.6133 82.1973 37.736 80.32C35.8587 78.3573 34.92 76.0107 34.92 73.28C34.92 70.5493 35.8587 68.2453 37.736 66.368C39.6133 64.4053 41.9173 63.424 44.648 63.424C47.3787 63.424 49.6827 64.4053 51.56 66.368C53.5227 68.2453 54.504 70.5493 54.504 73.28ZM112.43 99.008C112.43 103.019 110.083 105.024 105.39 105.024C100.611 105.024 98.222 103.019 98.222 99.008V7.23199C98.222 3.22133 100.611 1.216 105.39 1.216C110.083 1.216 112.43 3.22133 112.43 7.23199V99.008ZM144.168 83.52C144.168 85.568 144.808 87.488 146.088 89.28C147.453 91.072 149.715 91.968 152.872 91.968H168.872C172.029 91.968 174.248 91.2 175.528 89.664C176.893 88.0427 177.576 86.208 177.576 84.16V82.752C177.576 78.7413 179.923 76.736 184.616 76.736C189.309 76.736 191.656 78.7413 191.656 82.752V84.288C191.656 87.872 191.059 90.816 189.864 93.12C188.755 95.424 187.048 97.4293 184.744 99.136C180.221 102.379 175.699 104 171.176 104H149.672C145.149 104 140.755 102.379 136.488 99.136C134.44 97.4293 132.861 95.296 131.752 92.736C130.643 90.0907 130.088 87.0613 130.088 83.648V47.168C130.088 40.256 132.221 35.136 136.488 31.808C138.621 30.272 140.797 29.0773 143.016 28.224C145.32 27.2853 147.539 26.816 149.672 26.816H171.176C173.224 26.816 175.485 27.2427 177.96 28.096C180.435 28.864 182.739 29.9307 184.872 31.296C186.92 32.7467 188.541 34.752 189.736 37.312C191.016 39.872 191.656 42.9013 191.656 46.4V63.68C191.656 65.6427 191.059 67.392 189.864 68.928C188.755 70.464 186.664 71.232 183.592 71.232H155.944C152.872 71.232 151.251 69.2267 151.08 65.216C151.08 61.2053 152.701 59.2 155.944 59.2H177.704L177.576 47.296C177.576 45.1627 176.893 43.2427 175.528 41.536C174.248 39.744 172.029 38.848 168.872 38.848H152.872C149.715 38.848 147.453 39.744 146.088 41.536C144.808 43.2427 144.168 45.1627 144.168 47.296V83.52ZM239.835 64.832L261.339 95.168C261.936 96.0213 262.235 96.96 262.235 97.984C262.235 99.776 260.955 101.568 258.395 103.36C256.774 104.469 255.238 105.024 253.787 105.024C252.934 105.024 252.038 104.725 251.099 104.128C250.246 103.531 249.435 102.763 248.667 101.824L231.131 77.12C229.851 78.912 228.443 80.8747 226.907 83.008C225.456 85.1413 223.963 87.3173 222.427 89.536C220.891 91.6693 219.355 93.8027 217.819 95.936C216.368 98.0693 215.003 100.032 213.723 101.824C212.102 103.957 210.352 105.024 208.475 105.024C206.854 105.024 205.318 104.469 203.867 103.36C202.672 102.507 201.734 101.696 201.051 100.928C200.454 100.075 200.155 99.136 200.155 98.112C200.155 97.088 200.496 96.1067 201.179 95.168L222.427 64.832C219.27 60.3093 215.942 55.5733 212.443 50.624C208.944 45.6747 205.616 40.896 202.459 36.288C202.118 35.6907 201.776 35.0507 201.435 34.368C201.179 33.6 201.051 33.0027 201.051 32.576C201.051 30.784 202.246 29.12 204.635 27.584H204.507C205.36 27.1573 206.128 26.816 206.811 26.56C207.579 26.2187 208.304 26.048 208.987 26.048C211.291 26.048 213.296 27.2853 215.003 29.76L231.131 52.672L247.259 29.76C249.051 27.2853 251.056 26.048 253.275 26.048C254.043 26.048 254.768 26.2187 255.451 26.56C256.134 26.816 256.902 27.1573 257.755 27.584H257.627C260.102 29.12 261.339 30.784 261.339 32.576C261.339 33.6 260.827 34.8373 259.803 36.288L239.835 64.832ZM366.009 3.90399C367.289 2.368 368.74 1.6 370.361 1.6C372.153 1.6 373.988 2.41066 375.865 4.032C376.804 4.97066 377.572 5.90933 378.169 6.84799C378.852 7.78666 379.193 8.72533 379.193 9.66399C379.193 11.2 378.638 12.5227 377.529 13.632L360.377 33.6L326.969 72.896V98.624C326.969 102.72 324.409 104.768 319.289 104.768C314.254 104.768 311.737 102.72 311.737 98.624V7.87199C311.737 3.776 314.254 1.728 319.289 1.728C324.409 1.728 326.969 3.776 326.969 7.87199V49.728L366.009 3.90399ZM347.833 64.704C346.98 63.5093 346.553 62.0587 346.553 60.352C346.553 57.792 347.62 55.744 349.753 54.208H349.625C351.332 53.0133 353.038 52.416 354.745 52.416C356.366 52.416 357.732 53.3547 358.841 55.232L383.545 91.328L383.417 91.2C384.185 92.3947 384.569 93.6747 384.569 95.04C384.569 97.2587 383.46 99.2213 381.241 100.928H381.369C380.43 101.525 379.534 101.995 378.681 102.336C377.828 102.677 377.06 102.848 376.377 102.848C375.694 102.848 374.969 102.592 374.201 102.08C373.518 101.568 372.836 100.928 372.153 100.16L347.833 64.704ZM413.416 104C410.771 104 408.253 103.659 405.864 102.976C403.475 102.208 401.171 101.141 398.952 99.776V99.904C394.771 97.2587 392.68 92.3947 392.68 85.312V79.04C392.68 75.5413 393.277 72.512 394.472 69.952C395.752 67.3067 397.501 65.216 399.72 63.68H399.592C401.725 62.2293 403.987 61.1627 406.376 60.48C408.765 59.712 411.069 59.328 413.288 59.328H441.576V47.424C441.576 45.2907 440.893 43.3707 439.528 41.664C438.248 39.872 436.029 38.976 432.872 38.976H417.896C414.653 38.976 412.392 39.7867 411.112 41.408C409.917 42.944 409.32 44.7787 409.32 46.912V47.936C409.32 52.3733 406.931 54.592 402.152 54.592C397.373 54.592 394.984 52.3733 394.984 47.936V46.784C394.984 43.2853 395.581 40.3413 396.776 37.952C398.056 35.5627 399.763 33.5573 401.896 31.936H401.768C403.987 30.4853 406.291 29.2907 408.68 28.352C411.155 27.4133 413.501 26.944 415.72 26.944H435.176C437.309 26.944 439.571 27.4133 441.96 28.352C444.435 29.2907 446.739 30.4853 448.872 31.936H448.744C450.963 33.5573 452.669 35.6907 453.864 38.336C455.059 40.896 455.656 43.8827 455.656 47.296V98.624C455.656 102.72 453.309 104.768 448.616 104.768C447.677 104.768 446.781 104.725 445.928 104.64C445.16 104.555 444.435 104.341 443.752 104C443.155 103.573 442.643 103.019 442.216 102.336C441.875 101.568 441.704 100.587 441.704 99.392L441.576 71.36H415.72C413.843 71.36 412.392 71.5733 411.368 72C410.344 72.4267 409.533 73.1093 408.936 74.048C408.253 75.4987 407.741 76.6507 407.4 77.504C407.144 78.272 407.016 79.168 407.016 80.192V85.184C407.016 87.4027 407.656 89.1093 408.936 90.304C410.301 91.4133 412.605 91.968 415.848 91.968H430.184C433.341 91.968 434.92 93.9733 434.92 97.984C434.92 99.6907 434.536 101.141 433.768 102.336C433 103.445 431.805 104 430.184 104H413.416ZM486.805 99.008C486.805 103.019 484.458 105.024 479.765 105.024C474.986 105.024 472.597 103.019 472.597 99.008V7.23199C472.597 3.22133 474.986 1.216 479.765 1.216C484.458 1.216 486.805 3.22133 486.805 7.23199V99.008ZM518.927 98.624C518.927 102.72 516.58 104.768 511.887 104.768C507.108 104.768 504.719 102.72 504.719 98.624V32.576C504.719 28.48 507.108 26.432 511.887 26.432C516.58 26.432 518.927 28.48 518.927 32.576V98.624ZM521.615 10.304C521.615 13.0347 520.676 15.3387 518.799 17.216C516.922 19.0933 514.618 20.032 511.887 20.032C509.156 20.032 506.81 19.0933 504.847 17.216C502.97 15.3387 502.031 13.0347 502.031 10.304C502.031 7.48799 502.97 5.14133 504.847 3.26399C506.81 1.38666 509.156 0.447998 511.887 0.447998C514.618 0.447998 516.922 1.38666 518.799 3.26399C520.676 5.14133 521.615 7.48799 521.615 10.304ZM550.793 98.624C550.793 102.72 548.446 104.768 543.753 104.768C539.06 104.768 536.713 102.72 536.713 98.624V47.168C536.713 43.6693 537.268 40.64 538.377 38.08C539.486 35.52 541.236 33.4293 543.625 31.808C548.148 28.5653 552.67 26.944 557.193 26.944H577.801C582.153 26.944 586.676 28.5653 591.369 31.808C595.977 35.0507 598.281 40.1707 598.281 47.168V98.624C598.281 102.72 595.934 104.768 591.241 104.768C586.548 104.768 584.201 102.72 584.201 98.624V48.32C584.201 46.1013 583.518 43.968 582.153 41.92L582.281 42.048C581.172 40 578.91 38.976 575.497 38.976H559.497C555.998 38.976 553.694 40 552.585 42.048C551.39 43.84 550.793 45.9307 550.793 48.32V98.624ZM629.302 98.624C629.302 102.72 626.955 104.768 622.262 104.768C617.483 104.768 615.094 102.72 615.094 98.624V32.576C615.094 28.48 617.483 26.432 622.262 26.432C626.955 26.432 629.302 28.48 629.302 32.576V98.624ZM631.99 10.304C631.99 13.0347 631.051 15.3387 629.174 17.216C627.297 19.0933 624.993 20.032 622.262 20.032C619.531 20.032 617.185 19.0933 615.222 17.216C613.345 15.3387 612.406 13.0347 612.406 10.304C612.406 7.48799 613.345 5.14133 615.222 3.26399C617.185 1.38666 619.531 0.447998 622.262 0.447998C624.993 0.447998 627.297 1.38666 629.174 3.26399C631.051 5.14133 631.99 7.48799 631.99 10.304ZM661.168 98.624C661.168 102.72 658.821 104.768 654.128 104.768C649.435 104.768 647.088 102.72 647.088 98.624V47.168C647.088 43.6693 647.643 40.64 648.752 38.08C649.861 35.52 651.611 33.4293 654 31.808C658.523 28.5653 663.045 26.944 667.568 26.944H688.176C692.528 26.944 697.051 28.5653 701.744 31.808C706.352 35.0507 708.656 40.1707 708.656 47.168V98.624C708.656 102.72 706.309 104.768 701.616 104.768C696.923 104.768 694.576 102.72 694.576 98.624V48.32C694.576 46.1013 693.893 43.968 692.528 41.92L692.656 42.048C691.547 40 689.285 38.976 685.872 38.976H669.872C666.373 38.976 664.069 40 662.96 42.048C661.765 43.84 661.168 45.9307 661.168 48.32V98.624Z" fill="#F9BF4B"/>
</svg>
