<svg width="2674" height="706" viewBox="0 0 2674 706" fill="none" xmlns="http://www.w3.org/2000/svg">
<path d="M1019.84 698.247H906.838C889.051 698.247 872.048 695.789 855.831 690.871C839.718 685.953 824.233 678.943 809.375 669.84V670.625C781.125 652.838 767 620.037 767 572.221V530.003C767 506.356 771.185 485.744 779.556 468.166C787.926 450.589 799.592 436.673 814.554 426.419H813.613C828.052 416.584 843.327 409.207 859.44 404.29C875.449 399.372 890.934 396.913 905.896 396.913H1096.74V316.715C1096.74 302.38 1092.29 289.302 1083.4 277.478C1074.51 265.655 1059.39 259.744 1038.04 259.744H936.971C915.104 259.744 900.037 265.08 891.771 275.752C883.401 286.32 879.215 298.823 879.215 313.262V320.167C879.215 350.092 863.103 365.054 830.877 365.054C798.651 365.054 782.538 350.092 782.538 320.167V312.32C782.538 288.778 786.723 268.951 795.093 252.838C803.359 236.725 814.711 223.228 829.15 212.346H828.365C843.223 202.511 858.865 194.402 875.292 188.02C891.719 181.742 907.413 178.603 922.375 178.603H1053.58C1067.92 178.603 1083.3 181.742 1099.72 188.02C1116.15 194.402 1131.58 202.511 1146.02 212.346H1145.08C1160.04 223.228 1171.55 237.458 1179.61 255.035C1187.66 272.509 1191.69 292.807 1191.69 315.93V661.993C1191.69 689.615 1175.89 703.427 1144.3 703.427C1137.91 703.427 1132 703.165 1126.56 702.642C1121.02 702.014 1116.1 700.392 1111.81 697.777C1107.52 695.161 1104.07 691.446 1101.45 686.633C1098.83 681.716 1097.53 675.229 1097.53 667.172L1096.74 478.054H922.375C909.715 478.054 899.932 479.519 893.027 482.448C886.121 485.378 880.68 489.982 876.704 496.259C872.101 505.99 868.753 513.628 866.66 519.173C864.672 524.614 863.678 530.787 863.678 537.693V571.279C863.678 586.241 868.125 597.646 877.018 605.493C886.016 613.236 901.449 617.107 923.317 617.107H1019.84C1041.18 617.107 1051.85 630.656 1051.85 657.756C1051.85 669.16 1049.29 678.786 1044.16 686.633C1038.93 694.376 1030.82 698.247 1019.84 698.247Z" fill="#F9BF4B"/>
<path d="M1349.42 45.6709V664.504C1349.42 691.603 1333.57 705.153 1301.87 705.153C1269.64 705.153 1253.53 691.603 1253.53 664.504V45.6709C1253.53 18.6764 1269.64 5.1792 1301.87 5.1792C1333.57 5.1792 1349.42 18.6764 1349.42 45.6709Z" fill="#F9BF4B"/>
<path d="M1524.42 216.584V661.993C1524.42 689.615 1508.56 703.426 1476.86 703.426C1444.63 703.426 1428.52 689.615 1428.52 661.993V216.584C1428.52 188.961 1444.63 175.15 1476.86 175.15C1508.56 175.15 1524.42 188.961 1524.42 216.584ZM1542.62 66.3877C1542.62 84.8025 1536.24 100.34 1523.47 113C1510.92 125.66 1495.38 131.991 1476.86 131.991C1458.45 131.991 1442.8 125.66 1429.93 113C1416.96 100.34 1410.47 84.8025 1410.47 66.3877C1410.47 47.3451 1416.96 31.4936 1429.93 18.8334C1442.8 6.2778 1458.45 0 1476.86 0C1495.38 0 1510.92 6.2778 1523.47 18.8334C1536.24 31.4936 1542.62 47.3451 1542.62 66.3877Z" fill="#F9BF4B"/>
<path d="M1693.84 322.679V661.993C1693.84 689.615 1677.99 703.427 1646.28 703.427C1614.58 703.427 1598.73 689.615 1598.73 661.993V314.988C1598.73 291.342 1602.5 270.939 1610.03 253.78C1617.46 236.411 1629.28 222.286 1645.5 211.405C1675.95 189.537 1706.45 178.603 1737 178.603H1875.89C1905.19 178.603 1935.69 189.537 1967.39 211.405C1998.47 233.272 2014 267.8 2014 314.988V661.993C2014 689.615 1998.21 703.427 1966.61 703.427C1934.9 703.427 1919.05 689.615 1919.05 661.993V322.679C1919.05 307.716 1914.45 293.33 1905.24 279.519L1906.03 280.46C1898.6 266.649 1883.37 259.744 1860.36 259.744H1752.53C1728.89 259.744 1713.3 266.649 1705.77 280.46C1697.81 292.597 1693.84 306.67 1693.84 322.679Z" fill="#F9BF4B"/>
<path d="M2183.58 216.584V661.993C2183.58 689.615 2167.73 703.426 2136.03 703.426C2103.8 703.426 2087.69 689.615 2087.69 661.993V216.584C2087.69 188.961 2103.8 175.15 2136.03 175.15C2167.73 175.15 2183.58 188.961 2183.58 216.584ZM2201.79 66.3877C2201.79 84.8025 2195.41 100.34 2182.64 113C2170.09 125.66 2154.55 131.991 2136.03 131.991C2117.61 131.991 2101.97 125.66 2089.1 113C2076.13 100.34 2069.64 84.8025 2069.64 66.3877C2069.64 47.3451 2076.13 31.4936 2089.1 18.8334C2101.97 6.2778 2117.61 0 2136.03 0C2154.55 0 2170.09 6.2778 2182.64 18.8334C2195.41 31.4936 2201.79 47.3451 2201.79 66.3877Z" fill="#F9BF4B"/>
<path d="M2353 322.679V661.993C2353 689.615 2337.15 703.427 2305.45 703.427C2273.75 703.427 2257.9 689.615 2257.9 661.993V314.988C2257.9 291.342 2261.66 270.939 2269.2 253.78C2276.62 236.411 2288.45 222.286 2304.67 211.405C2335.11 189.537 2365.61 178.603 2396.16 178.603H2535.06C2564.36 178.603 2594.86 189.537 2626.56 211.405C2657.63 233.272 2673.17 267.8 2673.17 314.988V661.993C2673.17 689.615 2657.37 703.427 2625.77 703.427C2594.07 703.427 2578.22 689.615 2578.22 661.993V322.679C2578.22 307.716 2573.62 293.33 2564.41 279.519L2565.19 280.46C2557.77 266.649 2542.54 259.744 2519.52 259.744H2411.7C2388.06 259.744 2372.47 266.649 2364.93 280.46C2356.98 292.597 2353 306.67 2353 322.679Z" fill="#F9BF4B"/>
<path d="M352.094 139.797C376.634 107.133 398.628 72.6313 417.882 36.5972C433.129 9.20898 450.565 -1.16749 482.4 0.103103C547.271 2.92663 612.424 0.808985 677.435 0.950161C684.494 0.950161 693.176 -2.43807 696.988 4.26781C700.8 10.9737 693.529 18.3855 689.929 24.5266C641.271 102.644 592.471 180.55 543.529 258.244C453.176 402.527 362.941 546.88 272.824 691.303C270.67 695.737 267.259 699.439 263.017 701.95C258.775 704.46 253.888 705.667 248.965 705.421C172.4 704.95 95.6706 704.903 18.7765 705.28C5.78824 705.35 0 701.891 0 687.421C0.376471 465.538 0.376471 243.656 0 21.7737C0.224346 18.858 0.625079 15.9586 1.2 13.0913C22.3765 35.8913 37.3412 63.0678 53.4353 89.256C78.2824 129.774 102.847 170.644 127.765 211.021C154.8 254.927 182.753 298.48 211.059 341.75C218.612 353.256 224.047 349.232 230.118 339.562C258.353 294.668 288.353 250.691 315.388 205.021C328.024 183.633 343.765 163.727 352.094 139.797Z" fill="#19C9A8"/>
<path d="M352.094 139.797C343.764 163.727 328.023 183.632 315.388 204.809C288.353 250.479 258.423 294.456 230.117 339.35C224.047 349.021 218.611 353.044 211.058 341.538C182.823 298.268 154.588 254.715 127.764 210.809C102.847 170.432 78.3525 129.562 53.4349 89.0442C37.3408 63.0677 22.3761 35.8912 1.19959 13.0912C-0.494532 0.103008 9.03488 1.30301 17.0819 1.23242H166.164C192.494 1.09124 218.823 2.00889 245.082 0.738302C251.386 0.0953735 257.735 1.42794 263.249 4.55158C268.762 7.67523 273.169 12.4355 275.858 18.1736C300.705 59.0442 326.541 99.3501 352.094 139.797ZM569.858 705.068H455.647C451.058 705.58 446.422 704.678 442.36 702.483C438.298 700.288 435.003 696.905 432.917 692.785C416.682 665.679 399.741 638.997 382.376 612.597C379.514 608.953 377.958 604.454 377.958 599.821C377.958 595.187 379.514 590.688 382.376 587.044C420.705 526.338 458.823 465.279 496.87 404.362C502.235 395.75 506.4 391.162 514.8 403.797C577.694 498.244 635.294 596.009 696.423 691.868C703.482 703.444 698.682 705.562 687.6 705.421H569.858V705.068Z" fill="#F9BF4B"/>
</svg>
